<mxfile host="65bd71144e" pages="3">
    <diagram name="AskACat / Static" id="AYW02A2UxmyTWjyU7nBY">
        <mxGraphModel dx="847" dy="427" grid="1" gridSize="10" guides="1" tooltips="1" connect="1" arrows="1" fold="1" page="1" pageScale="1" pageWidth="827" pageHeight="1169" math="0" shadow="0">
            <root>
                <mxCell id="Fwvk4CStFVqfM5GDR4kU-0"/>
                <mxCell id="Fwvk4CStFVqfM5GDR4kU-1" parent="Fwvk4CStFVqfM5GDR4kU-0"/>
                <mxCell id="Fwvk4CStFVqfM5GDR4kU-2" value="&lt;p style=&quot;margin: 0px ; margin-top: 4px ; text-align: center&quot;&gt;&lt;b&gt;Cat&lt;/b&gt;&lt;/p&gt;&lt;hr size=&quot;1&quot;&gt;&lt;p style=&quot;margin: 0px ; margin-left: 4px&quot;&gt;- name: String&lt;/p&gt;&lt;hr size=&quot;1&quot;&gt;&lt;p style=&quot;margin: 0px ; margin-left: 4px&quot;&gt;&lt;span&gt;+ getName(pet:Pet,caller:String): String&lt;/span&gt;&lt;br&gt;&lt;/p&gt;&lt;p style=&quot;margin: 0px ; margin-left: 4px&quot;&gt;+ askACat(): String&lt;br&gt;&lt;/p&gt;&lt;p style=&quot;margin: 0px ; margin-left: 4px&quot;&gt;+ petSounds(): String&lt;br&gt;&lt;/p&gt;" style="verticalAlign=top;align=left;overflow=fill;fontSize=12;fontFamily=Helvetica;html=1;" parent="Fwvk4CStFVqfM5GDR4kU-1" vertex="1">
                    <mxGeometry x="400" y="280" width="230" height="120" as="geometry"/>
                </mxCell>
                <mxCell id="Fwvk4CStFVqfM5GDR4kU-3" value="&lt;p style=&quot;margin: 0px ; margin-top: 4px ; text-align: center&quot;&gt;&lt;b&gt;&amp;lt;&amp;lt; static&amp;gt;&amp;gt;&lt;/b&gt;&lt;b&gt;&lt;br&gt;&lt;/b&gt;&lt;/p&gt;&lt;p style=&quot;margin: 0px ; margin-top: 4px ; text-align: center&quot;&gt;&lt;b&gt;Controller&lt;/b&gt;&lt;/p&gt;&lt;hr size=&quot;1&quot;&gt;&lt;p style=&quot;margin: 0px ; margin-left: 4px&quot;&gt;&lt;u&gt;- catsList: ArrayList&lt;/u&gt;&lt;/p&gt;&amp;nbsp;&lt;u&gt;- dogsList: ArrayList&lt;/u&gt;&lt;br&gt;&amp;nbsp;&lt;u&gt;- random: Random&lt;/u&gt;&lt;br&gt;&lt;hr size=&quot;1&quot;&gt;&lt;p style=&quot;margin: 0px ; margin-left: 4px&quot;&gt;&lt;u&gt;+ addNewCat(name:String): void&lt;/u&gt;&lt;/p&gt;&lt;p style=&quot;margin: 0px ; margin-left: 4px&quot;&gt;&lt;u&gt;+ addNewDog(name:String): void&lt;br&gt;&lt;/u&gt;&lt;/p&gt;&lt;p style=&quot;margin: 0px ; margin-left: 4px&quot;&gt;&lt;u&gt;+ getSomeRandomDog(): Dog&lt;br&gt;&lt;/u&gt;&lt;/p&gt;&lt;p style=&quot;margin: 0px ; margin-left: 4px&quot;&gt;&lt;u&gt;+ getSomeRandomCat(): Cat&lt;br&gt;&lt;/u&gt;&lt;/p&gt;&lt;p style=&quot;margin: 0px ; margin-left: 4px&quot;&gt;&lt;u&gt;+ isCallerACat(pet:Pet): boolean&lt;/u&gt;&lt;br&gt;&lt;/p&gt;&lt;p style=&quot;margin: 0px ; margin-left: 4px&quot;&gt;&lt;br&gt;&lt;/p&gt;&lt;p style=&quot;margin: 0px ; margin-left: 4px&quot;&gt;&lt;br&gt;&lt;/p&gt;" style="verticalAlign=top;align=left;overflow=fill;fontSize=12;fontFamily=Helvetica;html=1;" parent="Fwvk4CStFVqfM5GDR4kU-1" vertex="1">
                    <mxGeometry x="235" y="495" width="210" height="180" as="geometry"/>
                </mxCell>
                <mxCell id="Fwvk4CStFVqfM5GDR4kU-4" value="&lt;p style=&quot;margin: 0px ; margin-top: 4px ; text-align: center&quot;&gt;&lt;b&gt;Dog&lt;/b&gt;&lt;/p&gt;&lt;hr size=&quot;1&quot;&gt;&lt;p style=&quot;margin: 0px ; margin-left: 4px&quot;&gt;- name: String&lt;/p&gt;&lt;hr size=&quot;1&quot;&gt;&lt;p style=&quot;margin: 0px ; margin-left: 4px&quot;&gt;&lt;span&gt;+ askACat(): String&lt;/span&gt;&lt;br&gt;&lt;/p&gt;&lt;p style=&quot;margin: 0px ; margin-left: 4px&quot;&gt;+ petSounds(): String&lt;/p&gt;" style="verticalAlign=top;align=left;overflow=fill;fontSize=12;fontFamily=Helvetica;html=1;" parent="Fwvk4CStFVqfM5GDR4kU-1" vertex="1">
                    <mxGeometry x="120" y="280" width="160" height="120" as="geometry"/>
                </mxCell>
                <mxCell id="Fwvk4CStFVqfM5GDR4kU-5" value="&lt;p style=&quot;margin: 0px ; margin-top: 4px ; text-align: center&quot;&gt;&lt;b&gt;&amp;lt;&amp;lt; abstract &amp;gt;&amp;gt;&lt;/b&gt;&lt;/p&gt;&lt;p style=&quot;margin: 0px ; margin-top: 4px ; text-align: center&quot;&gt;&lt;b&gt;Pet&lt;/b&gt;&lt;/p&gt;&lt;hr size=&quot;1&quot;&gt;&lt;p style=&quot;margin: 0px ; margin-left: 4px&quot;&gt;&lt;span&gt;+ petSounds(): String&lt;/span&gt;&lt;br&gt;&lt;/p&gt;" style="verticalAlign=top;align=left;overflow=fill;fontSize=12;fontFamily=Helvetica;html=1;" parent="Fwvk4CStFVqfM5GDR4kU-1" vertex="1">
                    <mxGeometry x="280" y="80" width="130" height="70" as="geometry"/>
                </mxCell>
                <mxCell id="Fwvk4CStFVqfM5GDR4kU-6" value="Extends" style="endArrow=block;endSize=16;endFill=0;html=1;exitX=0.5;exitY=0;exitDx=0;exitDy=0;" parent="Fwvk4CStFVqfM5GDR4kU-1" source="Fwvk4CStFVqfM5GDR4kU-2" target="Fwvk4CStFVqfM5GDR4kU-5" edge="1">
                    <mxGeometry width="160" relative="1" as="geometry">
                        <mxPoint x="420" y="130" as="sourcePoint"/>
                        <mxPoint x="340" y="150" as="targetPoint"/>
                    </mxGeometry>
                </mxCell>
                <mxCell id="Fwvk4CStFVqfM5GDR4kU-7" value="Extends" style="endArrow=block;endSize=16;endFill=0;html=1;exitX=0.5;exitY=0;exitDx=0;exitDy=0;" parent="Fwvk4CStFVqfM5GDR4kU-1" source="Fwvk4CStFVqfM5GDR4kU-4" target="Fwvk4CStFVqfM5GDR4kU-5" edge="1">
                    <mxGeometry width="160" relative="1" as="geometry">
                        <mxPoint x="80" y="150" as="sourcePoint"/>
                        <mxPoint x="240" y="150" as="targetPoint"/>
                    </mxGeometry>
                </mxCell>
                <mxCell id="Fwvk4CStFVqfM5GDR4kU-8" value="return" style="html=1;verticalAlign=bottom;endArrow=open;dashed=1;endSize=8;entryX=0.463;entryY=0.994;entryDx=0;entryDy=0;entryPerimeter=0;exitX=-0.005;exitY=0.651;exitDx=0;exitDy=0;exitPerimeter=0;" parent="Fwvk4CStFVqfM5GDR4kU-1" source="Fwvk4CStFVqfM5GDR4kU-3" target="Fwvk4CStFVqfM5GDR4kU-4" edge="1">
                    <mxGeometry relative="1" as="geometry">
                        <mxPoint x="50" y="460" as="sourcePoint"/>
                        <mxPoint x="-30" y="460" as="targetPoint"/>
                        <Array as="points">
                            <mxPoint x="194" y="612"/>
                        </Array>
                    </mxGeometry>
                </mxCell>
                <mxCell id="Fwvk4CStFVqfM5GDR4kU-9" value="return" style="html=1;verticalAlign=bottom;endArrow=open;dashed=1;endSize=8;exitX=0.999;exitY=0.651;exitDx=0;exitDy=0;exitPerimeter=0;entryX=0.533;entryY=0.999;entryDx=0;entryDy=0;entryPerimeter=0;" parent="Fwvk4CStFVqfM5GDR4kU-1" source="Fwvk4CStFVqfM5GDR4kU-3" target="Fwvk4CStFVqfM5GDR4kU-2" edge="1">
                    <mxGeometry relative="1" as="geometry">
                        <mxPoint x="530" y="590" as="sourcePoint"/>
                        <mxPoint x="520" y="420" as="targetPoint"/>
                        <Array as="points">
                            <mxPoint x="520" y="612"/>
                        </Array>
                    </mxGeometry>
                </mxCell>
            </root>
        </mxGraphModel>
    </diagram>
</mxfile>